<svg width="156" height="36" viewBox="0 0 156 36" fill="none" xmlns="http://www.w3.org/2000/svg">
<rect width="36" height="36" rx="8" fill="#3E84A8"/>
<path d="M8 20.5C9.38071 20.5 10.5 19.3807 10.5 18C10.5 16.6193 9.38071 15.5 8 15.5C6.61929 15.5 5.5 16.6193 5.5 18C5.5 19.3807 6.61929 20.5 8 20.5Z" fill="white"/>
<path d="M27.6435 15C27.0118 15.002 26.3985 15.2239 25.8998 15.6311C25.4011 16.0383 25.0451 16.6076 24.8877 17.25H21.8276C21.7264 16.827 21.5379 16.4326 21.2754 16.0946C21.0129 15.7567 20.6829 15.4835 20.3086 15.2943C19.9344 15.1052 19.5251 15.0048 19.1098 15.0002C18.6944 14.9956 18.2832 15.0869 17.9053 15.2678L15.6359 12.2903C16.0092 11.7755 16.2123 11.147 16.2145 10.5C16.2145 9.90666 16.0469 9.32664 15.733 8.83329C15.419 8.33994 14.9728 7.95543 14.4507 7.72836C13.9286 7.5013 13.3541 7.44189 12.7998 7.55765C12.2456 7.6734 11.7365 7.95912 11.3369 8.37868C10.9373 8.79824 10.6652 9.33279 10.5549 9.91473C10.4447 10.4967 10.5012 11.0999 10.7175 11.6481C10.9338 12.1962 11.3 12.6648 11.7698 12.9944C12.2397 13.3241 12.7921 13.5 13.3573 13.5C13.76 13.499 14.158 13.4077 14.5244 13.2323L16.7931 16.2098C16.4181 16.7235 16.2148 17.3527 16.2148 18C16.2148 18.6473 16.4181 19.2765 16.7931 19.7902L14.5244 22.7677C14.158 22.5923 13.76 22.501 13.3573 22.5C12.7921 22.5 12.2397 22.6759 11.7698 23.0056C11.3 23.3352 10.9338 23.8038 10.7175 24.3519C10.5012 24.9001 10.4447 25.5033 10.5549 26.0853C10.6652 26.6672 10.9373 27.2018 11.3369 27.6213C11.7365 28.0409 12.2456 28.3266 12.7998 28.4424C13.3541 28.5581 13.9286 28.4987 14.4507 28.2716C14.9728 28.0446 15.419 27.6601 15.733 27.1667C16.0469 26.6734 16.2145 26.0933 16.2145 25.5C16.2124 24.853 16.0093 24.2245 15.6359 23.7097L17.9046 20.7322C18.2826 20.9132 18.6938 21.0047 19.1092 21.0001C19.5246 20.9956 19.934 20.8952 20.3084 20.7061C20.6827 20.5169 21.0128 20.2437 21.2754 19.9056C21.5379 19.5676 21.7264 19.1731 21.8276 18.75H24.8877C25.0222 19.2919 25.2987 19.7834 25.6859 20.1686C26.0731 20.5538 26.5553 20.8173 27.078 20.9291C27.6006 21.041 28.1426 20.9968 28.6425 20.8015C29.1424 20.6061 29.5801 20.2676 29.9059 19.8242C30.2318 19.3808 30.4326 18.8504 30.4858 18.2932C30.539 17.7359 30.4422 17.1742 30.2066 16.6718C29.971 16.1694 29.6059 15.7464 29.1529 15.4509C28.6998 15.1554 28.1769 14.9992 27.6435 15ZM11.9286 10.5C11.9286 10.2033 12.0124 9.91332 12.1694 9.66665C12.3264 9.41997 12.5495 9.22771 12.8105 9.11418C13.0716 9.00065 13.3588 8.97095 13.636 9.02882C13.9131 9.0867 14.1676 9.22956 14.3674 9.43934C14.5672 9.64912 14.7033 9.91639 14.7584 10.2074C14.8136 10.4983 14.7853 10.7999 14.6771 11.074C14.569 11.3481 14.3859 11.5824 14.151 11.7472C13.916 11.912 13.6398 12 13.3573 12C12.9785 11.9996 12.6153 11.8414 12.3475 11.5602C12.0796 11.279 11.929 10.8977 11.9286 10.5ZM13.3573 27C13.0747 27 12.7985 26.912 12.5636 26.7472C12.3286 26.5824 12.1455 26.3481 12.0374 26.074C11.9292 25.7999 11.901 25.4983 11.9561 25.2074C12.0112 24.9164 12.1473 24.6491 12.3471 24.4393C12.5469 24.2296 12.8014 24.0867 13.0785 24.0288C13.3557 23.9709 13.6429 24.0006 13.904 24.1142C14.165 24.2277 14.3881 24.42 14.5451 24.6666C14.7021 24.9133 14.7859 25.2033 14.7859 25.5C14.7855 25.8977 14.6349 26.279 14.367 26.5602C14.0992 26.8414 13.736 26.9996 13.3573 27ZM19.0718 19.5C18.7892 19.5 18.513 19.412 18.2781 19.2472C18.0431 19.0824 17.86 18.8481 17.7519 18.574C17.6437 18.2999 17.6155 17.9983 17.6706 17.7074C17.7257 17.4164 17.8618 17.1491 18.0616 16.9393C18.2614 16.7296 18.5159 16.5867 18.793 16.5288C19.0702 16.4709 19.3574 16.5006 19.6185 16.6142C19.8795 16.7277 20.1026 16.92 20.2596 17.1666C20.4166 17.4133 20.5004 17.7033 20.5004 18C20.5 18.3977 20.3494 18.779 20.0815 19.0602C19.8137 19.3414 19.4505 19.4996 19.0718 19.5ZM27.6435 19.5C27.361 19.5 27.0847 19.412 26.8498 19.2472C26.6149 19.0824 26.4318 18.8481 26.3236 18.574C26.2155 18.2999 26.1872 17.9983 26.2423 17.7074C26.2975 17.4164 26.4335 17.1491 26.6333 16.9393C26.8331 16.7296 27.0877 16.5867 27.3648 16.5288C27.6419 16.4709 27.9292 16.5006 28.1902 16.6142C28.4513 16.7277 28.6744 16.92 28.8314 17.1666C28.9883 17.4133 29.0721 17.7033 29.0721 18C29.0718 18.3977 28.9211 18.779 28.6533 19.0602C28.3854 19.3414 28.0223 19.4996 27.6435 19.5Z" fill="white"/>
<path d="M23.625 31.5C24.8676 31.5 25.875 30.4926 25.875 29.25C25.875 28.0074 24.8676 27 23.625 27C22.3824 27 21.375 28.0074 21.375 29.25C21.375 30.4926 22.3824 31.5 23.625 31.5Z" fill="white"/>
<path d="M23.625 9C24.8676 9 25.875 7.99264 25.875 6.75C25.875 5.50736 24.8676 4.5 23.625 4.5C22.3824 4.5 21.375 5.50736 21.375 6.75C21.375 7.99264 22.3824 9 23.625 9Z" fill="white"/>
<path d="M46.8 12.38H49.94C50.8467 12.38 51.5333 12.58 52 12.98C52.48 13.3667 52.72 13.9733 52.72 14.8V17.08C52.72 17.9333 52.4933 18.5667 52.04 18.98C51.5867 19.3933 50.9067 19.5933 50 19.58L45.02 19.5V18.08H50.78C50.9533 18.08 51.04 17.9933 51.04 17.82V14.12C51.04 13.9467 50.9533 13.86 50.78 13.86H47.58C46.6733 13.86 45.9933 13.6733 45.54 13.3C45.0867 12.9267 44.86 12.3133 44.86 11.46V9.26C44.86 8.43333 45.0933 7.8 45.56 7.36C46.04 6.92 46.7333 6.70667 47.64 6.72L52.36 6.8V8.22H46.8C46.6267 8.22 46.54 8.30667 46.54 8.48V12.12C46.54 12.2933 46.6267 12.38 46.8 12.38ZM61.5127 8.14H56.5727C56.4527 8.14 56.3927 8.20667 56.3927 8.34V17.96C56.3927 18.0933 56.4527 18.16 56.5727 18.16H61.5127C61.646 18.16 61.7127 18.0933 61.7127 17.96V8.34C61.7127 8.20667 61.646 8.14 61.5127 8.14ZM54.7127 17.34V8.96C54.7127 8.13333 54.9193 7.54667 55.3327 7.2C55.746 6.84 56.386 6.66 57.2527 6.66H60.8327C61.7127 6.66 62.3593 6.84 62.7727 7.2C63.186 7.54667 63.3927 8.13333 63.3927 8.96V17.34C63.3927 18.1667 63.186 18.76 62.7727 19.12C62.3593 19.4667 61.7127 19.64 60.8327 19.64H57.2527C56.386 19.64 55.746 19.4667 55.3327 19.12C54.9193 18.76 54.7127 18.1667 54.7127 17.34ZM72.825 18.02V19.5H68.405C67.525 19.5 66.8783 19.3267 66.465 18.98C66.0517 18.62 65.845 18.0333 65.845 17.22V9.08C65.845 8.25333 66.0517 7.66667 66.465 7.32C66.8783 6.97333 67.525 6.8 68.405 6.8H72.825V8.28H67.725C67.5917 8.28 67.525 8.34 67.525 8.46V17.84C67.525 17.96 67.5917 18.02 67.725 18.02H72.825ZM76.5583 19.5H74.9383V6.8H76.5583V19.5ZM88.5978 19.5H86.9578L86.0978 15.98L86.3378 16.18H80.7178L80.9778 15.98L80.0378 19.5H78.4978L81.5378 8.66C81.6711 8.14 81.8111 7.74667 81.9578 7.48C82.1178 7.21333 82.3311 7.02667 82.5978 6.92C82.8645 6.81333 83.2511 6.76 83.7578 6.76L85.4778 6.8L88.5978 19.5ZM83.0178 8.4L81.2378 14.96L81.0778 14.76H86.0378L85.8778 14.96L84.2578 8.2H83.2378C83.1711 8.2 83.1245 8.22 83.0978 8.26C83.0711 8.28667 83.0445 8.33333 83.0178 8.4ZM96.6442 18.08V19.5H90.2642V6.8H91.8842V18.38L91.5842 18.08H96.6442Z" fill="white"/>
<path d="M78.324 31.5H77.19V22.61H78.324V31.5ZM82.5517 24.542H83.5177C84.059 24.542 84.451 24.6447 84.6937 24.85C84.9363 25.0553 85.0577 25.4287 85.0577 25.97V31.5H83.9517V25.578C83.9517 25.494 83.9097 25.452 83.8257 25.452H81.5437C81.4503 25.452 81.4037 25.494 81.4037 25.578L81.4177 31.5H80.3117V24.64H81.2777L81.4037 25.452L81.2777 25.83C81.2777 25.3913 81.3757 25.0693 81.5717 24.864C81.777 24.6493 82.1037 24.542 82.5517 24.542ZM90.144 30.198C90.0694 30.5433 89.9807 30.8233 89.878 31.038C89.7754 31.2433 89.6307 31.388 89.444 31.472C89.2574 31.556 88.982 31.5887 88.618 31.57L87.344 31.5L85.804 24.64H86.91L88.24 30.688H88.94C88.9867 30.688 89.0194 30.6787 89.038 30.66C89.0567 30.6413 89.0707 30.6087 89.08 30.562L90.368 24.64H91.432L90.144 30.198ZM96.7259 31.57H93.9259C93.3192 31.57 92.8759 31.458 92.5959 31.234C92.3159 31.0007 92.1759 30.5947 92.1759 30.016V26.054C92.1759 25.4753 92.2972 25.0787 92.5399 24.864C92.7826 24.6493 93.1932 24.542 93.7719 24.542H95.2419C95.8392 24.542 96.2639 24.6493 96.5159 24.864C96.7679 25.0787 96.8939 25.4753 96.8939 26.054V28.812H93.1559V27.986H95.7879V25.578C95.7879 25.494 95.7412 25.452 95.6479 25.452H93.4219C93.3379 25.452 93.2959 25.494 93.2959 25.578V30.52C93.2959 30.604 93.3379 30.646 93.4219 30.646H96.7259V31.57ZM100.867 31.556H98.0388V30.646H101.189C101.273 30.646 101.315 30.604 101.315 30.52V28.574C101.315 28.49 101.273 28.448 101.189 28.448H99.5788C98.9908 28.448 98.5662 28.3407 98.3048 28.126C98.0528 27.9113 97.9268 27.524 97.9268 26.964V26.068C97.9268 25.4893 98.0575 25.0927 98.3188 24.878C98.5895 24.654 99.0142 24.542 99.5928 24.542L102.085 24.556V25.48L99.1868 25.466C99.0935 25.466 99.0468 25.5127 99.0468 25.606V27.44C99.0468 27.524 99.0935 27.566 99.1868 27.566H100.769C101.366 27.566 101.791 27.6733 102.043 27.888C102.295 28.0933 102.421 28.4807 102.421 29.05V30.114C102.421 30.6553 102.3 31.0333 102.057 31.248C101.814 31.4533 101.418 31.556 100.867 31.556ZM106.634 24.64V25.508H104.87L105.01 25.368V30.45C105.01 30.534 105.052 30.576 105.136 30.576H106.634V31.5H105.654C105.038 31.5 104.59 31.3833 104.31 31.15C104.04 30.9167 103.904 30.5153 103.904 29.946V25.368L104.044 25.508H103.064V24.64H104.044L103.904 24.78V22.89H105.01V24.78L104.87 24.64H106.634ZM109.619 24.542H110.431C110.982 24.542 111.379 24.6447 111.621 24.85C111.864 25.0553 111.985 25.4287 111.985 25.97V31.5H110.879V25.578C110.879 25.494 110.837 25.452 110.753 25.452H108.611C108.518 25.452 108.471 25.494 108.471 25.578L108.485 31.5H107.379L107.365 24.64H108.331L108.471 25.452L108.345 25.83C108.345 25.3913 108.443 25.0693 108.639 24.864C108.845 24.6493 109.171 24.542 109.619 24.542ZM113.119 24.542H113.945C114.487 24.542 114.879 24.6447 115.121 24.85C115.364 25.0553 115.485 25.4287 115.485 25.97V31.5H114.379V25.578C114.379 25.494 114.337 25.452 114.253 25.452H112.111C112.027 25.452 111.985 25.494 111.985 25.578L111.957 25.998L111.845 25.83C111.845 25.3913 111.948 25.0693 112.153 24.864C112.359 24.6493 112.681 24.542 113.119 24.542ZM121.349 31.57H118.549C117.942 31.57 117.499 31.458 117.219 31.234C116.939 31.0007 116.799 30.5947 116.799 30.016V26.054C116.799 25.4753 116.92 25.0787 117.163 24.864C117.406 24.6493 117.816 24.542 118.395 24.542H119.865C120.462 24.542 120.887 24.6493 121.139 24.864C121.391 25.0787 121.517 25.4753 121.517 26.054V28.812H117.779V27.986H120.411V25.578C120.411 25.494 120.364 25.452 120.271 25.452H118.045C117.961 25.452 117.919 25.494 117.919 25.578V30.52C117.919 30.604 117.961 30.646 118.045 30.646H121.349V31.57ZM125.126 24.542H126.092C126.633 24.542 127.025 24.6447 127.268 24.85C127.511 25.0553 127.632 25.4287 127.632 25.97V31.5H126.526V25.578C126.526 25.494 126.484 25.452 126.4 25.452H124.118C124.025 25.452 123.978 25.494 123.978 25.578L123.992 31.5H122.886V24.64H123.852L123.978 25.452L123.852 25.83C123.852 25.3913 123.95 25.0693 124.146 24.864C124.351 24.6493 124.678 24.542 125.126 24.542ZM132.214 24.64V25.508H130.45L130.59 25.368V30.45C130.59 30.534 130.632 30.576 130.716 30.576H132.214V31.5H131.234C130.618 31.5 130.17 31.3833 129.89 31.15C129.62 30.9167 129.484 30.5153 129.484 29.946V25.368L129.624 25.508H128.644V24.64H129.624L129.484 24.78V22.89H130.59V24.78L130.45 24.64H132.214ZM140.875 26.712V22.61H142.009V31.5H140.875V27.286L141.085 27.482H136.885L137.095 27.286V31.5H135.961V22.61H137.095V26.712L136.885 26.488H141.085L140.875 26.712ZM146.226 31.598H145.26C144.718 31.598 144.322 31.4953 144.07 31.29C143.827 31.0753 143.706 30.702 143.706 30.17V24.64H144.812V30.562C144.812 30.646 144.854 30.688 144.938 30.688H147.374L147.36 24.64H148.466V31.5H147.5L147.374 30.688L147.458 30.31C147.458 30.7487 147.364 31.0753 147.178 31.29C146.991 31.4953 146.674 31.598 146.226 31.598ZM153.174 31.556L150.066 31.5V22.05H151.172V25.452L151.102 25.83C151.102 25.3913 151.19 25.0693 151.368 24.864C151.554 24.6493 151.872 24.542 152.32 24.542H153.272C153.822 24.542 154.219 24.6447 154.462 24.85C154.704 25.0553 154.826 25.4287 154.826 25.97V30.072C154.826 30.632 154.7 31.024 154.448 31.248C154.196 31.4627 153.771 31.5653 153.174 31.556ZM151.172 25.578V30.758L151.046 30.618L153.594 30.646C153.678 30.646 153.72 30.5993 153.72 30.506V25.578C153.72 25.494 153.678 25.452 153.594 25.452H151.312C151.218 25.452 151.172 25.494 151.172 25.578Z" fill="#B1B1B1" fill-opacity="0.3"/>
</svg>
